<svg xmlns="http://www.w3.org/2000/svg" width="760" height="430" viewBox="0 0 760 430" role="img" aria-label="LeetCode topic coverage">
<rect width="100%" height="100%" fill="#ffffff" rx="16" />
<text x="20" y="30" font-size="18" font-weight="700" fill="#1f2933">Top topic coverage</text>
<text x="20" y="48" font-size="12" fill="#52606d">Top 10 topics by solved problem count</text>
<text x="20" y="78" font-size="13" fill="#1f2933">Array</text>
<rect x="220" y="64" width="464" height="18" fill="#e5e7eb" rx="6" />
<rect x="220" y="64" width="464" height="18" fill="#2563eb" rx="6" />
<text x="692" y="78" font-size="13" fill="#1f2933">35</text>
<text x="20" y="112" font-size="13" fill="#1f2933">Hash Table</text>
<rect x="220" y="98" width="464" height="18" fill="#e5e7eb" rx="6" />
<rect x="220" y="98" width="225" height="18" fill="#2563eb" rx="6" />
<text x="453" y="112" font-size="13" fill="#1f2933">17</text>
<text x="20" y="146" font-size="13" fill="#1f2933">Dynamic Programming</text>
<rect x="220" y="132" width="464" height="18" fill="#e5e7eb" rx="6" />
<rect x="220" y="132" width="212" height="18" fill="#2563eb" rx="6" />
<text x="440" y="146" font-size="13" fill="#1f2933">16</text>
<text x="20" y="180" font-size="13" fill="#1f2933">Sorting</text>
<rect x="220" y="166" width="464" height="18" fill="#e5e7eb" rx="6" />
<rect x="220" y="166" width="132" height="18" fill="#2563eb" rx="6" />
<text x="360" y="180" font-size="13" fill="#1f2933">10</text>
<text x="20" y="214" font-size="13" fill="#1f2933">Breadth-First Search</text>
<rect x="220" y="200" width="464" height="18" fill="#e5e7eb" rx="6" />
<rect x="220" y="200" width="119" height="18" fill="#2563eb" rx="6" />
<text x="347" y="214" font-size="13" fill="#1f2933">9</text>
<text x="20" y="248" font-size="13" fill="#1f2933">String</text>
<rect x="220" y="234" width="464" height="18" fill="#e5e7eb" rx="6" />
<rect x="220" y="234" width="119" height="18" fill="#2563eb" rx="6" />
<text x="347" y="248" font-size="13" fill="#1f2933">9</text>
<text x="20" y="282" font-size="13" fill="#1f2933">Two Pointers</text>
<rect x="220" y="268" width="464" height="18" fill="#e5e7eb" rx="6" />
<rect x="220" y="268" width="119" height="18" fill="#2563eb" rx="6" />
<text x="347" y="282" font-size="13" fill="#1f2933">9</text>
<text x="20" y="316" font-size="13" fill="#1f2933">Depth-First Search</text>
<rect x="220" y="302" width="464" height="18" fill="#e5e7eb" rx="6" />
<rect x="220" y="302" width="106" height="18" fill="#2563eb" rx="6" />
<text x="334" y="316" font-size="13" fill="#1f2933">8</text>
<text x="20" y="350" font-size="13" fill="#1f2933">Binary Search</text>
<rect x="220" y="336" width="464" height="18" fill="#e5e7eb" rx="6" />
<rect x="220" y="336" width="92" height="18" fill="#2563eb" rx="6" />
<text x="320" y="350" font-size="13" fill="#1f2933">7</text>
<text x="20" y="384" font-size="13" fill="#1f2933">Linked List</text>
<rect x="220" y="370" width="464" height="18" fill="#e5e7eb" rx="6" />
<rect x="220" y="370" width="92" height="18" fill="#2563eb" rx="6" />
<text x="320" y="384" font-size="13" fill="#1f2933">7</text>
</svg>
