<svg xmlns="http://www.w3.org/2000/svg" width="760" height="430" viewBox="0 0 760 430" role="img" aria-label="LeetCode topic coverage">
<rect width="100%" height="100%" fill="#ffffff" rx="16" />
<text x="20" y="30" font-size="18" font-weight="700" fill="#1f2933">Top topic coverage</text>
<text x="20" y="48" font-size="12" fill="#52606d">Top 10 topics by solved problem count</text>
<text x="20" y="78" font-size="13" fill="#1f2933">Array</text>
<rect x="220" y="64" width="464" height="18" fill="#e5e7eb" rx="6" />
<rect x="220" y="64" width="464" height="18" fill="#2563eb" rx="6" />
<text x="692" y="78" font-size="13" fill="#1f2933">10</text>
<text x="20" y="112" font-size="13" fill="#1f2933">Dynamic Programming</text>
<rect x="220" y="98" width="464" height="18" fill="#e5e7eb" rx="6" />
<rect x="220" y="98" width="464" height="18" fill="#2563eb" rx="6" />
<text x="692" y="112" font-size="13" fill="#1f2933">10</text>
<text x="20" y="146" font-size="13" fill="#1f2933">Hash Table</text>
<rect x="220" y="132" width="464" height="18" fill="#e5e7eb" rx="6" />
<rect x="220" y="132" width="278" height="18" fill="#2563eb" rx="6" />
<text x="506" y="146" font-size="13" fill="#1f2933">6</text>
<text x="20" y="180" font-size="13" fill="#1f2933">Math</text>
<rect x="220" y="166" width="464" height="18" fill="#e5e7eb" rx="6" />
<rect x="220" y="166" width="185" height="18" fill="#2563eb" rx="6" />
<text x="413" y="180" font-size="13" fill="#1f2933">4</text>
<text x="20" y="214" font-size="13" fill="#1f2933">Memoization</text>
<rect x="220" y="200" width="464" height="18" fill="#e5e7eb" rx="6" />
<rect x="220" y="200" width="139" height="18" fill="#2563eb" rx="6" />
<text x="367" y="214" font-size="13" fill="#1f2933">3</text>
<text x="20" y="248" font-size="13" fill="#1f2933">Sorting</text>
<rect x="220" y="234" width="464" height="18" fill="#e5e7eb" rx="6" />
<rect x="220" y="234" width="139" height="18" fill="#2563eb" rx="6" />
<text x="367" y="248" font-size="13" fill="#1f2933">3</text>
<text x="20" y="282" font-size="13" fill="#1f2933">String</text>
<rect x="220" y="268" width="464" height="18" fill="#e5e7eb" rx="6" />
<rect x="220" y="268" width="139" height="18" fill="#2563eb" rx="6" />
<text x="367" y="282" font-size="13" fill="#1f2933">3</text>
<text x="20" y="316" font-size="13" fill="#1f2933">Matrix</text>
<rect x="220" y="302" width="464" height="18" fill="#e5e7eb" rx="6" />
<rect x="220" y="302" width="92" height="18" fill="#2563eb" rx="6" />
<text x="320" y="316" font-size="13" fill="#1f2933">2</text>
<text x="20" y="350" font-size="13" fill="#1f2933">Binary Search</text>
<rect x="220" y="336" width="464" height="18" fill="#e5e7eb" rx="6" />
<rect x="220" y="336" width="46" height="18" fill="#2563eb" rx="6" />
<text x="274" y="350" font-size="13" fill="#1f2933">1</text>
<text x="20" y="384" font-size="13" fill="#1f2933">Combinatorics</text>
<rect x="220" y="370" width="464" height="18" fill="#e5e7eb" rx="6" />
<rect x="220" y="370" width="46" height="18" fill="#2563eb" rx="6" />
<text x="274" y="384" font-size="13" fill="#1f2933">1</text>
</svg>
